PathFileType	4	(X/Y/Z)	OpenSim_Sub03_EMGBaseline_Accel.trc
DataRate	CameraRate	NumFrames	NumMarkers	Units	OrigDataRate	OrigDataStartFrame	OrigNumFrames
100	100	38	8	m	100	922	7372
Frame#	Time	torso_imu_offset_imu	pelvis_imu_offset_imu	tibia_r_imu_offset_imu	femur_r_imu_offset_imu	tibia_l_imu_offset_imu	femur_l_imu_offset_imu	toes_r_imu_offset_imu	toes_l_imu_offset_imu
				X1	Y1	Z1	X2	Y2	Z2	X3	Y3	Z3	X4	Y4	Z4	X5	Y5	Z5	X6	Y6	Z6	X7	Y7	Z7	X8		Y8	Z8	

922	9.21000000	9.50847578	1.34441602	5.99596094	10.10009526	-0.84361621	0.61730356	9.76553526	1.70394111	0.70532469	9.10016282	-5.40215275	2.50936719	10.51012157	-1.55284629	-0.86847614	9.61717846	1.03558146	-2.19129926	5.69922041	-5.74071681	12.52070037	6.92067476	1.03993665	9.76037813
923	9.22000000	9.81738452	1.35655623	6.01354307	10.47338061	-0.62801247	0.81576000	11.54172402	2.03628026	2.09185869	9.70541619	-5.19261163	1.76505308	10.87887808	-1.49441118	-0.98711227	9.63311428	1.40141174	-2.37382372	-1.38042415	-7.36122812	13.22068866	6.93273261	1.13856527	9.85558938
924	9.23000000	10.28223853	1.35600679	6.07773355	10.83664813	-0.25865294	1.10322476	12.89659750	-2.77476564	3.02483203	10.75314917	-4.37944757	1.40188417	11.13553881	-0.93079675	-1.00870172	9.73288337	2.02454362	-2.36089825	-0.08244427	-3.72925736	10.07485812	6.42634189	1.30571109	10.23238262
925	9.24000000	10.65086378	1.33790834	6.28401604	11.14173944	0.07319179	1.41276811	11.46221739	-4.91951746	1.59760140	10.82019459	-3.79207716	1.47786408	11.34568402	-0.24940590	-0.77668148	10.07265519	2.46109267	-2.36088684	7.45380620	-1.65455425	10.08562005	6.56972236	1.65203377	10.05326041
926	9.25000000	10.43932419	1.21693684	6.40666200	11.21288845	0.25703285	1.63254499	10.73794926	-2.86392533	0.88803430	10.71282344	-3.76897966	1.90433755	11.56820941	-0.27073911	-0.77347546	10.15851854	2.56268000	-2.27771697	9.22160247	-3.24398511	9.32969452	6.89552589	1.46950723	9.97964405
927	9.26000000	10.17502341	0.87641881	6.31790419	11.28105022	0.47721567	1.99569939	11.81451745	-1.00016400	1.51882986	11.64042438	-4.59959467	2.21348458	11.88795142	-0.55888137	-0.66218572	10.15068301	2.70856705	-2.19897729	8.73506980	-4.88175352	8.94142009	6.57683497	1.45362389	10.29442290
928	9.27000000	10.38085913	0.77470259	6.35872376	11.24245488	0.77392541	2.32871197	12.14113541	-0.70178859	1.42764140	12.47942490	-5.94019883	2.46220269	12.03976879	-0.01747376	-0.40808270	10.05011381	2.68233671	-2.18715443	9.30513754	-5.69210166	9.17831260	6.32402523	1.65991526	10.35383542
929	9.28000000	10.65504602	0.89848317	6.45833051	11.10185584	1.06427805	2.44696844	11.38502152	-1.28247750	0.83416728	11.66689182	-6.50293712	1.93883315	11.93804260	0.93957443	-0.15377675	9.83512860	2.51376978	-1.89067288	9.09483475	-4.26901752	8.97741245	6.17001616	1.66852844	10.04841547
930	9.29000000	10.60734130	0.83649337	6.38603971	10.76971223	1.13757355	2.46104802	10.31754037	-0.18601683	0.31579146	9.65119449	-5.70978024	0.70680019	11.98634060	1.13238776	-0.07700915	9.93615742	2.30120592	-1.49101326	7.89248874	-2.20795726	8.95112463	6.50320424	2.11150341	9.82964289
931	9.30000000	10.16767140	0.63758973	6.24060691	10.24469323	0.67540822	2.32323021	9.34588965	2.05667554	0.23288632	8.03123001	-3.36009934	0.11462535	12.46082262	0.83509884	-0.10137464	10.20373204	1.96394050	-1.23792551	6.81469727	-0.77393217	9.02397012	6.79461178	2.57471392	10.13387003
932	9.31000000	9.69709151	0.38377347	6.03528225	9.74056821	-0.29284096	2.18433656	8.80182078	4.09591227	0.41035007	7.62859910	-0.54873132	0.70001361	12.72036621	1.01047471	-0.25010409	10.31800987	1.54506455	-0.95566802	6.43069303	-0.33811619	9.08613426	6.79686681	2.64554691	10.47614075
933	9.32000000	9.49198192	0.15043028	5.83885420	9.55854886	-1.21881686	2.33088705	8.84782518	4.96935477	0.12111719	7.86990742	2.17490831	1.71634126	12.43899511	1.67711643	-0.08036355	10.11583870	0.96445346	-0.75959592	6.68346871	-0.91026204	8.94974241	8.04802355	2.87203465	10.11486494
934	9.33000000	9.46573921	-0.00130545	5.73022572	9.48704936	-1.64735047	2.71708490	9.29365337	4.44963808	-0.41700308	8.33845558	3.28060435	2.04876949	12.09365536	2.90488808	0.62519928	9.81603480	0.67075530	-0.53255466	7.58424390	-2.17933034	8.61825401	8.56897570	3.59888308	9.73170539
935	9.34000000	9.53091256	-0.02038656	5.56459300	9.43727531	-1.54953195	3.10392528	9.78210486	3.87583333	-1.16019832	9.56682330	2.55621133	1.49534627	11.82400794	3.58352470	0.87930822	9.63884347	0.80485654	-0.12209508	7.43198143	-2.86358930	7.90589011	8.94817981	2.89215469	9.41435432
936	9.35000000	9.57454246	0.01932121	5.44483672	9.50250096	-0.96810455	3.53515711	10.08266763	4.08600488	-1.13063551	10.54672235	1.84066783	0.78442210	12.11646980	2.54623749	0.52716465	9.35074296	0.93764238	0.21254317	7.43272460	-3.27270151	8.29467626	11.56428696	1.60825941	9.49677891
937	9.36000000	9.51788107	0.07889323	5.39623116	9.62541645	-0.11190390	3.92757163	10.30502230	4.06820569	-0.70006019	10.06039490	0.19678220	-0.46266974	12.70251906	0.48364884	-0.02557649	9.18715257	0.87169970	0.34564693	7.70276934	-2.41771960	8.99861469	13.59232490	1.60733481	9.36502617
938	9.37000000	9.48572545	0.11813661	5.26870242	9.81569143	0.67233820	4.13062494	10.65865017	3.92402560	-0.78722257	9.97289128	-0.78403551	-1.29549607	12.74174981	-0.83999231	-0.24590396	9.37434670	0.80528153	0.36579800	7.01308592	-1.49112264	8.82951545	15.01750292	1.72160489	8.68759272
939	9.38000000	9.51514863	0.10705079	5.09926067	9.92827116	1.29115820	4.08630867	10.77065250	3.65700335	-0.51313076	9.94132195	-1.15721680	-1.49354174	12.47841138	-1.45038550	-0.54506360	9.68702100	0.86961226	0.40616650	7.21114412	-1.86827227	8.75987631	15.26533283	2.61978238	8.53538332
940	9.39000000	9.50709984	0.00706572	5.01143370	10.00529441	1.80232661	4.03880416	10.70440437	2.55156254	-0.88314055	9.46001853	-1.42370324	-1.69556218	11.96303690	-2.12730643	-1.09711899	9.94864283	0.96710457	0.38427354	6.82057953	-2.27120161	8.64911538	13.88599791	2.80084311	8.34528302
941	9.40000000	9.43950255	-0.07306796	4.90757487	10.06491194	2.11720901	3.95924512	10.50178137	1.77843967	-1.31043051	10.15362547	-1.70901977	-1.72490377	10.96144687	-3.14716483	-1.70078728	10.05271851	0.92700136	0.26648772	6.23535809	-2.81598097	8.21080175	14.51128199	2.80364874	9.41184547
942	9.41000000	9.43627312	-0.09767353	4.87904437	10.04818195	2.28190157	3.78134358	10.24638600	1.49825993	-1.31446762	9.58547307	-1.33616833	-1.65066707	9.74351281	-4.28705608	-1.98836627	10.38847478	0.62365050	0.17588723	6.24745789	-2.87401860	8.00686484	14.11147005	3.66314488	9.94861463
943	9.42000000	9.50959645	-0.12100420	4.94810484	9.99960621	2.21318549	3.59972944	10.33672584	1.75704482	-1.26451199	9.21986283	-0.62466368	-1.29365605	8.41198811	-4.80590563	-1.86027407	10.68970830	0.08311047	0.27154237	6.11925369	-2.50819108	7.92756187	12.17197068	4.46876057	7.62668720
944	9.43000000	9.62211978	-0.15453599	4.98520169	9.83298473	1.84248671	3.39842099	10.21343287	2.24828664	-1.09200636	9.33841918	0.04256166	-1.10224619	7.17637613	-4.58067796	-1.08654115	10.88650789	-0.41986613	0.55570115	6.36469035	-2.37334365	8.24808403	11.31505634	4.91666174	6.25628383
945	9.44000000	9.66135725	-0.17354600	5.08496273	9.72400104	1.50135148	3.25577185	10.10554014	2.39912987	-1.18112460	9.41574616	0.41632341	-1.13130029	6.49446013	-4.52261225	-0.03204178	10.91904995	-0.60140714	0.68994511	6.89375185	-2.49421608	8.13772876	12.80270164	0.17250348	8.18339172
946	9.45000000	9.62776452	-0.26241393	5.13855905	9.60596199	1.29688996	3.13815477	10.17763723	2.27086663	-1.42273892	9.60448499	0.55228920	-1.01260506	6.69089727	-7.19800875	0.54592035	11.02161903	-0.38728610	0.57865696	7.01224879	-2.68840894	7.92651490	17.90102983	0.29889499	16.54550951
947	9.46000000	9.63777215	-0.22523127	5.24728164	9.47370206	1.25176379	2.99379186	10.01306239	2.01740146	-1.77773544	9.59149676	0.45618874	-0.91116510	7.16819360	-12.17528205	-1.31322877	11.73369188	-0.11100828	0.52877934	6.69426367	-2.71199962	7.82770860	16.02155675	10.58196570	20.22984435
948	9.47000000	9.67582668	-0.11493547	5.24273357	9.42194406	1.27047762	2.82213192	9.95054032	1.73206284	-1.81375516	9.27217762	0.48098987	-1.02516541	6.13864204	-12.07208385	-3.90876309	12.48604157	0.01780181	0.49475017	6.76068818	-2.75995732	7.55874827	10.26369623	12.57602094	15.91688372
949	9.48000000	9.84731590	-0.00659827	5.26393105	9.59292819	1.21624391	2.69629584	9.96539777	1.74109117	-1.63548836	9.20227340	0.57214387	-0.98527190	4.24877364	-7.12536375	-3.01068037	12.45395574	0.07879286	0.50388187	6.24511174	-3.07579786	7.40228957	5.24485373	8.66816718	13.06171705
950	9.49000000	10.01729281	0.07565619	5.37415145	9.94210523	1.17069601	2.66176703	10.09938918	1.56776501	-1.44421538	9.31810179	0.61034340	-0.86544798	3.09809927	-4.16393015	-0.28348370	11.83280877	0.42235545	0.63061474	6.04744168	-2.94567001	7.63852418	0.12940210	5.56093123	11.06240294
951	9.50000000	9.88224805	0.17832309	5.51874737	10.25668238	1.15611742	2.63599404	10.25180859	0.74168695	-1.18156183	9.32161290	0.48668615	-0.91656655	3.16038153	-4.32362054	1.58487847	11.16777016	0.87221092	0.68528456	6.21345859	-2.86494020	7.65948926	-1.18644563	2.83587536	8.07370199
952	9.51000000	9.58078082	0.33318249	5.65874084	10.39425467	1.15460230	2.57718068	10.06062696	-0.09160938	-0.87870475	9.30730801	0.21218606	-0.71344470	4.08713366	-5.56207157	1.91877500	10.55125980	1.06921737	0.72305824	6.08303021	-3.02888410	7.41207292	0.12215741	3.85825424	8.61152431
953	9.52000000	9.29574301	0.41721069	5.68835669	10.34526724	1.04637461	2.52141144	9.84615474	-0.65867138	-0.68273359	9.17547994	-0.10093709	-0.49519520	4.11611616	-5.64332067	1.99855374	10.16837619	1.18674320	0.69457733	5.87076786	-3.04730904	7.41708336	1.55703420	4.97966032	9.08067454
954	9.53000000	9.04937015	0.47763212	5.74101820	10.05881538	0.89645512	2.54943469	9.76319920	-1.10660656	-0.33042144	9.22814750	-0.66117924	-0.55222135	3.48118969	-4.96338914	2.72505808	9.99098191	1.10034437	0.76084222	5.88152632	-3.01759982	7.55568440	2.97103281	5.82655162	9.41201015
955	9.54000000	8.84630268	0.56333944	5.81785686	9.55886285	0.66332201	2.47739255	9.77692494	-1.28524200	-0.02440228	9.21684169	-1.26451226	-0.49152280	3.62756286	-4.37768668	2.69866024	9.95625362	0.91169430	0.92441315	5.79752417	-3.00221728	7.38959342	3.51212429	6.53655934	9.83351663
956	9.55000000	8.72420541	0.58673393	5.75243399	9.05126116	0.44112578	2.46069108	9.75222170	-1.20973227	-0.14895617	9.27038232	-1.83722417	-0.49587286	4.29157374	-3.71085925	2.13819469	9.90484646	0.88686942	1.09355657	5.90802083	-2.85720055	7.32388289	3.50964264	5.29113258	9.57730912
957	9.56000000	8.68941595	0.59722866	5.69668827	8.74441433	0.52596923	2.40434244	9.69126545	-1.20556068	-0.01007857	9.25299383	-2.10961083	-0.59439461	4.69193161	-3.71508317	1.92816288	9.80473282	0.90658494	1.23973341	5.63214485	-3.04755620	7.60721713	3.70610459	2.46169563	9.33796636
958	9.57000000	8.60177603	0.61298854	5.61659374	8.55083716	0.54630186	2.30887411	9.79679386	-1.30596858	0.00952818	9.32994058	-2.23867006	-0.43820456	5.17825825	-4.37542746	1.95328555	9.61914352	1.02890789	1.35394967	5.33889146	-3.35007367	7.49863550	4.40429682	-0.00607429	9.46369756
959	9.58000000	8.50070597	0.58083835	5.54524125	8.56578916	0.64450591	2.24113282	9.83696163	-1.70520418	-0.04191162	9.28398199	-2.21958695	-0.44555287	5.75624537	-4.54561688	2.07499079	9.35049071	1.16212480	1.21201771	5.59210528	-3.34240282	7.35006700	5.04390063	-1.19025785	9.36436331
